<svg width="22" height="23" viewBox="0 0 22 23" fill="none" xmlns="http://www.w3.org/2000/svg">
<rect x="3" y="9.5" width="4" height="9" rx="2" ry="2" fill="url(#paint0_radial)"/>
<path d="M17.7864 8.95419C17.7081 8.94124 14.0427 8.95419 14.0427 8.95419L14.5547 7.58995C14.908 6.64772 14.6793 5.20903 13.6991 4.69756C13.3799 4.531 12.934 4.44736 12.5745 4.53575C12.3683 4.58642 12.1872 4.71974 12.0792 4.89836C11.955 5.1038 11.9678 5.3436 11.9235 5.57139C11.8114 6.14916 11.5319 6.6985 11.099 7.11082C10.6043 7.58209 9.42646 8.63567 8.67371 9.30559C8.24573 9.68648 8 10.2317 8 10.8047V15.5C8 16.6046 8.89543 17.5 10 17.5H16.1013C17.1945 17.5006 17.9109 16.3083 17.3717 15.3769C18.0144 14.9749 18.2342 14.1281 17.8578 13.4779C18.5005 13.0758 18.7203 12.229 18.3439 11.5788C19.4528 10.8851 19.0821 9.16823 17.7864 8.95419Z" fill="black"/>
<path d="M17.7864 8.95419C17.7081 8.94124 14.0427 8.95419 14.0427 8.95419L14.5547 7.58995C14.908 6.64772 14.6793 5.20903 13.6991 4.69756C13.3799 4.531 12.934 4.44736 12.5745 4.53575C12.3683 4.58642 12.1872 4.71974 12.0792 4.89836C11.955 5.1038 11.9678 5.3436 11.9235 5.57139C11.8114 6.14916 11.5319 6.6985 11.099 7.11082C10.6043 7.58209 9.42646 8.63567 8.67371 9.30559C8.24573 9.68648 8 10.2317 8 10.8047V15.5C8 16.6046 8.89543 17.5 10 17.5H16.1013C17.1945 17.5006 17.9109 16.3083 17.3717 15.3769C18.0144 14.9749 18.2342 14.1281 17.8578 13.4779C18.5005 13.0758 18.7203 12.229 18.3439 11.5788C19.4528 10.8851 19.0821 9.16823 17.7864 8.95419Z" fill="url(#paint1_radial)"/>
<defs>
<radialGradient id="paint0_radial" cx="0" cy="0" r="1" gradientUnits="userSpaceOnUse" gradientTransform="translate(6 9.5) rotate(93.0941) scale(18.527 13.4656)">
<stop stop-color="#B6CAFF"/>
<stop offset="0.1875" stop-color="#7991CD"/>
<stop offset="0.400457" stop-color="#67729B"/>
</radialGradient>
<radialGradient id="paint1_radial" cx="0" cy="0" r="1" gradientUnits="userSpaceOnUse" gradientTransform="translate(9.5 6.5) rotate(80.8093) scale(25.0437 34.6539)">
<stop stop-color="white"/>
<stop offset="0.1875" stop-color="#D3DAE7"/>
<stop offset="0.393822" stop-color="#8084AA"/>
</radialGradient>
</defs>
</svg>
