<svg width="28" height="28" viewBox="0 0 28 28" fill="none" xmlns="http://www.w3.org/2000/svg">
<rect x="3" y="15" width="4" height="9" rx="2" ry="2" fill="url(#paint0_radial)"/>
<path d="M8 22V17.2808C8 16.6302 8.61182 16.1516 9.2382 16.3274C10.631 16.7183 11.7183 17.1091 12.5 17.5C13.5 18 15.5 18 17 18.5C18.2 18.9 18.8333 19.3333 19 19.5L18 20.5H12.5C11.8333 21.1667 11.5 21.5 15.5 21.5C22 21.5 20.5 17.5 23.5 18.5C23.9743 18.6581 25 18.5 25 19.5C25 20.5 17 25 15 25C13.23 25 11.46 23.4336 8.99691 23.0733C8.45045 22.9933 8 22.5523 8 22Z" fill="url(#paint1_linear)"/>
<path d="M8 22V17.2808C8 16.6302 8.61182 16.1516 9.2382 16.3274C10.631 16.7183 11.7183 17.1091 12.5 17.5C13.5 18 15.5 18 17 18.5C18.2 18.9 18.8333 19.3333 19 19.5L18 20.5H12.5C11.8333 21.1667 11.5 21.5 15.5 21.5C22 21.5 20.5 17.5 23.5 18.5C23.9743 18.6581 25 18.5 25 19.5C25 20.5 17 25 15 25C13.23 25 11.46 23.4336 8.99691 23.0733C8.45045 22.9933 8 22.5523 8 22Z" fill="url(#paint2_radial)"/>
<path d="M20.5 4.5L21.0402 5.95982L22.5 6.5L21.0402 7.04018L20.5 8.5L19.9598 7.04018L18.5 6.5L19.9598 5.95982L20.5 4.5Z" fill="url(#paint3_linear)"/>
<path d="M14.5 6.5L15.5804 9.41964L18.5 10.5L15.5804 11.5804L14.5 14.5L13.4196 11.5804L10.5 10.5L13.4196 9.41964L14.5 6.5Z" fill="url(#paint4_linear)"/>
<path d="M23.3103 12.6897L22.5 10.5L21.6897 12.6897L19.5 13.5L21.6897 14.3103L22.5 16.5L23.3103 14.3103L25.5 13.5L23.3103 12.6897Z" fill="url(#paint5_linear)"/>
<defs>
<radialGradient id="paint0_radial" cx="0" cy="0" r="1" gradientUnits="userSpaceOnUse" gradientTransform="translate(6 15) rotate(93.0941) scale(18.527 13.4656)">
<stop stop-color="#A6F8D0"/>
<stop offset="0.1875" stop-color="#97B1C9"/>
<stop offset="0.400457" stop-color="#67859B"/>
</radialGradient>
<linearGradient id="paint1_linear" x1="16.5" y1="16" x2="16.5" y2="25" gradientUnits="userSpaceOnUse">
<stop stop-color="#FDDE40"/>
<stop offset="1" stop-color="#FDA24F"/>
</linearGradient>
<radialGradient id="paint2_radial" cx="0" cy="0" r="1" gradientUnits="userSpaceOnUse" gradientTransform="translate(16.5 17.5) rotate(90) scale(17 52.5121)">
<stop stop-color="#A6F8D0"/>
<stop offset="0.1875" stop-color="#D3DDE7"/>
<stop offset="0.465247" stop-color="#8098AA"/>
</radialGradient>
<linearGradient id="paint3_linear" x1="18" y1="4.5" x2="18" y2="16.5" gradientUnits="userSpaceOnUse">
<stop stop-color="#A6F8B8"/>
<stop offset="1" stop-color="#69FFED"/>
</linearGradient>
<linearGradient id="paint4_linear" x1="18" y1="4.5" x2="18" y2="16.5" gradientUnits="userSpaceOnUse">
<stop stop-color="#A6F8B8"/>
<stop offset="1" stop-color="#69FFED"/>
</linearGradient>
<linearGradient id="paint5_linear" x1="18" y1="4.5" x2="18" y2="16.5" gradientUnits="userSpaceOnUse">
<stop stop-color="#A6F8B8"/>
<stop offset="1" stop-color="#69FFED"/>
</linearGradient>
</defs>
</svg>
