<svg width="28" height="28" viewBox="0 0 28 28" fill="none" xmlns="http://www.w3.org/2000/svg">
<path d="M18.7782 24.7782C20.8411 22.7153 22 19.9174 22 17C22 14.0826 20.8411 11.2847 18.7782 9.22183C16.7153 7.15893 13.9174 6 11 6C8.08262 6 5.28473 7.15892 3.22183 9.22182L4.53335 10.5333C6.24841 8.81828 8.57454 7.85477 11 7.85477C13.4255 7.85477 15.7516 8.81828 17.4667 10.5333C19.1817 12.2484 20.1452 14.5745 20.1452 17C20.1452 19.4255 19.1817 21.7516 17.4667 23.4667L18.7782 24.7782Z" fill="url(#paint0_linear)"/>
<path d="M4.49141 10.9914L2.7788 9.2788C2.34868 8.84868 2.34868 8.15132 2.7788 7.7212C3.18576 7.31424 3.83742 7.28922 4.27438 7.66376L6.39128 9.47824C6.78198 9.81313 7.02857 10.2857 7.07977 10.7977L7.83718 18.3718C7.93189 19.3189 8.68107 20.0681 9.62824 20.1628L17.2023 20.9202C17.7143 20.9714 18.1869 21.218 18.5218 21.6087L20.3362 23.7256C20.7108 24.1626 20.6858 24.8142 20.2788 25.2212C19.8487 25.6513 19.1513 25.6513 18.7212 25.2212L17.0086 23.5086C16.6798 23.1798 16.2468 22.9759 15.784 22.9318L7.64473 22.1566C6.69005 22.0657 5.93428 21.3099 5.84336 20.3553L5.06819 12.216C5.02411 11.7532 4.82016 11.3202 4.49141 10.9914Z" fill="url(#paint1_linear)"/>
<path d="M20 8L9 19" stroke="url(#paint2_linear)" stroke-width="2" stroke-linecap="round"/>
<path d="M23.7531 3.81552C24.1355 3.69945 24.4928 4.05675 24.3767 4.43918L22.4203 10.8854C22.2794 11.3495 21.6267 11.3614 21.469 10.9027L20.4791 8.02342C20.429 7.87771 20.3145 7.76323 20.1688 7.71314L17.2895 6.72325C16.8309 6.56557 16.8428 5.91282 17.3069 5.77197L23.7531 3.81552Z" fill="#E4E4E4"/>
<path d="M6.27523 17.4821C6.39344 17.3639 6.56291 17.3126 6.72684 17.3454L9.67312 17.9346C9.87105 17.9742 10.0258 18.1289 10.0654 18.3269L10.6546 21.2731C10.6874 21.4371 10.6361 21.6065 10.5179 21.7248L7.53928 24.7033C7.2569 24.9857 6.77376 24.8394 6.69544 24.4479L6.23693 22.1553C6.19734 21.9574 6.04263 21.8026 5.8447 21.7631L3.55214 21.3045C3.16054 21.2262 3.01426 20.7431 3.29664 20.4607L6.27523 17.4821Z" fill="url(#paint3_linear)"/>
<defs>
<linearGradient id="paint0_linear" x1="22" y1="6" x2="8.60869" y2="19.3913" gradientUnits="userSpaceOnUse">
<stop stop-color="#A66F4A"/>
<stop offset="1"/>
</linearGradient>
<linearGradient id="paint1_linear" x1="2" y1="7" x2="21" y2="26" gradientUnits="userSpaceOnUse">
<stop stop-color="#232323"/>
<stop offset="0.505665" stop-color="#131313"/>
<stop offset="1" stop-color="#232323"/>
</linearGradient>
<linearGradient id="paint2_linear" x1="9" y1="19" x2="20.5" y2="7.5" gradientUnits="userSpaceOnUse">
<stop stop-color="#AB916C"/>
<stop offset="0.5" stop-color="#CAB393"/>
<stop offset="1" stop-color="#B19A79"/>
</linearGradient>
<linearGradient id="paint3_linear" x1="9.99998" y1="18" x2="4.75734" y2="23.2426" gradientUnits="userSpaceOnUse">
<stop stop-color="#D14C2C"/>
<stop offset="1" stop-color="#691111"/>
</linearGradient>
</defs>
</svg>
