<svg width="22" height="22" viewBox="0 0 22 22" fill="none" xmlns="http://www.w3.org/2000/svg">
<path fill-rule="evenodd" clip-rule="evenodd" d="M8.29289 5.70711L5 9L3 9C2.44772 9 2 9.44771 2 10V12C2 12.5523 2.44772 13 3 13L5 13L8.29289 16.2929C8.92286 16.9229 10 16.4767 10 15.5858V6.41421C10 5.52331 8.92286 5.07714 8.29289 5.70711ZM19.3536 7.64645C19.5488 7.84171 19.5488 8.15829 19.3536 8.35355L16.7071 11L19.3536 13.6464C19.5488 13.8417 19.5488 14.1583 19.3536 14.3536C19.1583 14.5488 18.8417 14.5488 18.6464 14.3536L16 11.7071L13.3536 14.3536C13.1583 14.5488 12.8417 14.5488 12.6464 14.3536C12.4512 14.1583 12.4512 13.8417 12.6464 13.6464L15.2929 11L12.6464 8.35355C12.4512 8.15829 12.4512 7.84171 12.6464 7.64645C12.8417 7.45118 13.1583 7.45118 13.3536 7.64645L16 10.2929L18.6464 7.64645C18.8417 7.45118 19.1583 7.45118 19.3536 7.64645Z" fill="url(#paint0_linear)"/>
<defs>
<linearGradient id="paint0_linear" x1="10.75" y1="5.41221" x2="10.75" y2="16.5878" gradientUnits="userSpaceOnUse">
<stop stop-color="#E22121"/>
<stop offset="1" stop-color="#AE0069"/>
</linearGradient>
</defs>
</svg>
