<svg width="28" height="28" viewBox="0 0 28 28" fill="none" xmlns="http://www.w3.org/2000/svg">
<path fill-rule="evenodd" clip-rule="evenodd" d="M9.59743 4.39279C8.53671 5.20537 7.38707 6.08608 4.00131 6.2297C3.44952 6.25311 2.99929 6.69974 3.00531 7.25199C3.12713 18.4382 5.38304 22.7229 13.6457 25.9152C13.8712 26.0023 14.1288 26.0023 14.3543 25.9152C22.617 22.7229 24.8729 18.4382 24.9947 7.25199C25.0007 6.69974 24.5505 6.25311 23.9987 6.2297C20.6129 6.08608 19.4633 5.20537 18.4026 4.39279C17.423 3.64234 16.5192 2.95 14 2.95C11.4808 2.95 10.577 3.64234 9.59743 4.39279Z" fill="url(#paint0_radial)"/>
<path d="M12.8815 7H17.5924C17.9912 7 18.2295 7.44391 18.0092 7.77627L14.7672 12.6667H17.9306C18.3548 12.6667 18.5863 13.1618 18.3142 13.4873L11.5933 21.5299C11.2271 21.9681 10.5307 21.5488 10.7468 21.0201L12.8095 15.9722H10.4146C9.72429 15.9722 9.24159 15.2894 9.47185 14.6387L11.9388 7.66644C12.0801 7.26701 12.4578 7 12.8815 7Z" fill="url(#paint1_radial)"/>
<defs>
<radialGradient id="paint0_radial" cx="0" cy="0" r="1" gradientUnits="userSpaceOnUse" gradientTransform="translate(3.00525 2.95) rotate(52.626) scale(28.9805 27.619)">
<stop stop-color="#BDE7FF"/>
<stop offset="0.694028" stop-color="#7DC9FF"/>
<stop offset="0.944755" stop-color="#2B5B7E"/>
</radialGradient>
<radialGradient id="paint1_radial" cx="0" cy="0" r="1" gradientUnits="userSpaceOnUse" gradientTransform="translate(10.4286 7) rotate(76.7595) scale(14.5535 8.55345)">
<stop offset="0.578629" stop-color="#363D52"/>
<stop offset="1" stop-color="#1A1E32"/>
</radialGradient>
</defs>
</svg>
