<svg width="22" height="22" viewBox="0 0 22 22" fill="none" xmlns="http://www.w3.org/2000/svg">
<path fill-rule="evenodd" clip-rule="evenodd" d="M11 8C12.1046 8 13 7.10457 13 6C13 4.89543 12.1046 4 11 4C9.89543 4 9 4.89543 9 6C9 7.10457 9.89543 8 11 8ZM10 9C8.89543 9 8 9.89543 8 11C8 11.5523 8.44772 12 9 12H13C13.5523 12 14 11.5523 14 11C14 9.89543 13.1046 9 12 9H10Z" fill="url(#paint0_radial)"/>
<path fill-rule="evenodd" clip-rule="evenodd" d="M4 13C5.10457 13 6 12.1046 6 11C6 9.89543 5.10457 9 4 9C2.89543 9 2 9.89543 2 11C2 12.1046 2.89543 13 4 13ZM2 14C0.895431 14 0 14.8954 0 16C0 16.5523 0.447715 17 1 17H7C7.55228 17 8 16.5523 8 16C8 14.8954 7.10457 14 6 14H2Z" fill="url(#paint1_radial)"/>
<path fill-rule="evenodd" clip-rule="evenodd" d="M18 13C19.1046 13 20 12.1046 20 11C20 9.89543 19.1046 9 18 9C16.8954 9 16 9.89543 16 11C16 12.1046 16.8954 13 18 13ZM16 14C14.8954 14 14 14.8954 14 16C14 16.5523 14.4477 17 15 17H21C21.5523 17 22 16.5523 22 16C22 14.8954 21.1046 14 20 14H16Z" fill="url(#paint2_radial)"/>
<defs>
<radialGradient id="paint0_radial" cx="0" cy="0" r="1" gradientUnits="userSpaceOnUse" gradientTransform="translate(11 4) rotate(90) scale(8 6)">
<stop offset="0.708333" stop-color="#BEBFCA"/>
<stop offset="1" stop-color="#838594"/>
</radialGradient>
<radialGradient id="paint1_radial" cx="0" cy="0" r="1" gradientUnits="userSpaceOnUse" gradientTransform="translate(4 9) rotate(90) scale(8)">
<stop offset="0.708333" stop-color="#BEBFCA"/>
<stop offset="1" stop-color="#838594"/>
</radialGradient>
<radialGradient id="paint2_radial" cx="0" cy="0" r="1" gradientUnits="userSpaceOnUse" gradientTransform="translate(18 9) rotate(90) scale(8)">
<stop offset="0.708333" stop-color="#BEBFCA"/>
<stop offset="1" stop-color="#838594"/>
</radialGradient>
</defs>
</svg>
