<svg width="22" height="22" viewBox="0 0 22 22" fill="none" xmlns="http://www.w3.org/2000/svg">
<path fill-rule="evenodd" clip-rule="evenodd" d="M11 17C12.1046 17 13 16.1046 13 15C13 13.8954 12.1046 13 11 13C9.89543 13 9 13.8954 9 15C9 16.1046 9.89543 17 11 17ZM9 18C7.89543 18 7 18.8954 7 20C7 20.5523 7.44772 21 8 21H14C14.5523 21 15 20.5523 15 20C15 18.8954 14.1046 18 13 18H9Z" fill="url(#paint0_radial)"/>
<path fill-rule="evenodd" clip-rule="evenodd" d="M18 13C19.1046 13 20 12.1046 20 11C20 9.89543 19.1046 9 18 9C16.8954 9 16 9.89543 16 11C16 12.1046 16.8954 13 18 13ZM17 14C15.8954 14 15 14.8954 15 16C15 16.5523 15.4477 17 16 17H20C20.5523 17 21 16.5523 21 16C21 14.8954 20.1046 14 19 14H17Z" fill="url(#paint1_radial)"/>
<path fill-rule="evenodd" clip-rule="evenodd" d="M4 13C5.10457 13 6 12.1046 6 11C6 9.89543 5.10457 9 4 9C2.89543 9 2 9.89543 2 11C2 12.1046 2.89543 13 4 13ZM3 14C1.89543 14 1 14.8954 1 16C1 16.5523 1.44772 17 2 17H6C6.55228 17 7 16.5523 7 16C7 14.8954 6.10457 14 5 14H3Z" fill="url(#paint2_radial)"/>
<path fill-rule="evenodd" clip-rule="evenodd" d="M8 5C9.10457 5 10 4.10457 10 3C10 1.89543 9.10457 1 8 1C6.89543 1 6 1.89543 6 3C6 4.10457 6.89543 5 8 5ZM8 6C6.89543 6 6 6.89543 6 8C6 8.55228 6.44772 9 7 9H9C9.55228 9 10 8.55228 10 8C10 6.89543 9.10457 6 8 6Z" fill="url(#paint3_radial)"/>
<path fill-rule="evenodd" clip-rule="evenodd" d="M14 5C15.1046 5 16 4.10457 16 3C16 1.89543 15.1046 1 14 1C12.8954 1 12 1.89543 12 3C12 4.10457 12.8954 5 14 5ZM14 6C12.8954 6 12 6.89543 12 8C12 8.55228 12.4477 9 13 9H15C15.5523 9 16 8.55228 16 8C16 6.89543 15.1046 6 14 6Z" fill="url(#paint4_radial)"/>
<defs>
<radialGradient id="paint0_radial" cx="0" cy="0" r="1" gradientUnits="userSpaceOnUse" gradientTransform="translate(11 13) rotate(90) scale(8)">
<stop offset="0.708333" stop-color="#BEBFCA"/>
<stop offset="1" stop-color="#838594"/>
</radialGradient>
<radialGradient id="paint1_radial" cx="0" cy="0" r="1" gradientUnits="userSpaceOnUse" gradientTransform="translate(18 9) rotate(90) scale(8 6)">
<stop offset="0.708333" stop-color="#BEBFCA"/>
<stop offset="1" stop-color="#838594"/>
</radialGradient>
<radialGradient id="paint2_radial" cx="0" cy="0" r="1" gradientUnits="userSpaceOnUse" gradientTransform="translate(4 9) rotate(90) scale(8 6)">
<stop offset="0.708333" stop-color="#BEBFCA"/>
<stop offset="1" stop-color="#838594"/>
</radialGradient>
<radialGradient id="paint3_radial" cx="0" cy="0" r="1" gradientUnits="userSpaceOnUse" gradientTransform="translate(8 1) rotate(90) scale(8 4)">
<stop offset="0.708333" stop-color="#BEBFCA"/>
<stop offset="1" stop-color="#838594"/>
</radialGradient>
<radialGradient id="paint4_radial" cx="0" cy="0" r="1" gradientUnits="userSpaceOnUse" gradientTransform="translate(14 1) rotate(90) scale(8 4)">
<stop offset="0.708333" stop-color="#BEBFCA"/>
<stop offset="1" stop-color="#838594"/>
</radialGradient>
</defs>
</svg>
