<svg width="22" height="22" viewBox="0 0 22 22" fill="none" xmlns="http://www.w3.org/2000/svg">
<path fill-rule="evenodd" clip-rule="evenodd" d="M11 6C12.1046 6 13 5.10457 13 4C13 2.89543 12.1046 2 11 2C9.89543 2 9 2.89543 9 4C9 5.10457 9.89543 6 11 6ZM11 7C9.89543 7 9 7.89543 9 9C9 9.55228 9.44772 10 10 10H12C12.5523 10 13 9.55228 13 9C13 7.89543 12.1046 7 11 7Z" fill="url(#paint0_radial)"/>
<path fill-rule="evenodd" clip-rule="evenodd" d="M4 11C5.10457 11 6 10.1046 6 9C6 7.89543 5.10457 7 4 7C2.89543 7 2 7.89543 2 9C2 10.1046 2.89543 11 4 11ZM3 12C1.89543 12 1 12.8954 1 14C1 14.5523 1.44772 15 2 15H6C6.55228 15 7 14.5523 7 14C7 12.8954 6.10457 12 5 12H3Z" fill="url(#paint1_radial)"/>
<path fill-rule="evenodd" clip-rule="evenodd" d="M18 11C19.1046 11 20 10.1046 20 9C20 7.89543 19.1046 7 18 7C16.8954 7 16 7.89543 16 9C16 10.1046 16.8954 11 18 11ZM17 12C15.8954 12 15 12.8954 15 14C15 14.5523 15.4477 15 16 15H20C20.5523 15 21 14.5523 21 14C21 12.8954 20.1046 12 19 12H17Z" fill="url(#paint2_radial)"/>
<path fill-rule="evenodd" clip-rule="evenodd" d="M11 17C12.1046 17 13 16.1046 13 15C13 13.8954 12.1046 13 11 13C9.89543 13 9 13.8954 9 15C9 16.1046 9.89543 17 11 17ZM9 18C7.89543 18 7 18.8954 7 20C7 20.5523 7.44772 21 8 21H14C14.5523 21 15 20.5523 15 20C15 18.8954 14.1046 18 13 18H9Z" fill="url(#paint3_radial)"/>
<defs>
<radialGradient id="paint0_radial" cx="0" cy="0" r="1" gradientUnits="userSpaceOnUse" gradientTransform="translate(11 2) rotate(90) scale(8 4)">
<stop offset="0.708333" stop-color="#BEBFCA"/>
<stop offset="1" stop-color="#838594"/>
</radialGradient>
<radialGradient id="paint1_radial" cx="0" cy="0" r="1" gradientUnits="userSpaceOnUse" gradientTransform="translate(4 7) rotate(90) scale(8 6)">
<stop offset="0.708333" stop-color="#BEBFCA"/>
<stop offset="1" stop-color="#838594"/>
</radialGradient>
<radialGradient id="paint2_radial" cx="0" cy="0" r="1" gradientUnits="userSpaceOnUse" gradientTransform="translate(18 7) rotate(90) scale(8 6)">
<stop offset="0.708333" stop-color="#BEBFCA"/>
<stop offset="1" stop-color="#838594"/>
</radialGradient>
<radialGradient id="paint3_radial" cx="0" cy="0" r="1" gradientUnits="userSpaceOnUse" gradientTransform="translate(11 13) rotate(90) scale(8)">
<stop offset="0.708333" stop-color="#BEBFCA"/>
<stop offset="1" stop-color="#838594"/>
</radialGradient>
</defs>
</svg>
