<svg width="46" height="32" viewBox="0 0 46 32" fill="none" xmlns="http://www.w3.org/2000/svg">
<path d="M16.5 13.2022L17.8804 14.3738C17.9688 14.4488 18.0509 14.5309 18.1259 14.6192C18.8888 15.5173 18.7789 16.8636 17.8804 17.6262L16.5 18.7978C16.8116 19.6321 17.2613 20.4077 17.8284 21.0934L19.5314 20.4847C19.6405 20.4458 19.7527 20.4157 19.8667 20.3949C21.0262 20.1835 22.1376 20.9518 22.3491 22.1109L22.6734 23.8907C23.1086 23.9632 23.5518 24 24 24C24.4478 24 24.8908 23.9633 25.3257 23.8908L25.6509 22.1108C25.6718 21.9969 25.7018 21.8848 25.7408 21.7757C26.1374 20.6662 27.3588 20.0882 28.4687 20.4847L30.1716 21.0934C30.7387 20.4077 31.1884 19.6321 31.5 18.7978L30.1196 17.6261C30.0312 17.5511 29.9491 17.4691 29.8741 17.3808C29.1113 16.4827 29.2212 15.1364 30.1197 14.3738L31.5 13.2022C31.1884 12.3679 30.7387 11.5924 30.1716 10.9066L28.4686 11.5153C28.3594 11.5543 28.2473 11.5843 28.1333 11.6051C26.9739 11.8165 25.8624 11.0482 25.6511 9.88927L25.3257 8.10917C24.8908 8.03673 24.4478 8 24 8C23.5518 8 23.1086 8.03678 22.6734 8.10932L22.349 9.88912C22.3283 10.0031 22.2982 10.1152 22.2592 10.2243C21.8626 11.3338 20.6413 11.9118 19.5313 11.5153L17.8284 10.9066C17.2613 11.5924 16.8116 12.3679 16.5 13.2022Z" stroke="#B6C0C8"/>
<circle cx="24" cy="16" r="2" stroke="#B6C0C8"/>
</svg>
