<svg width="28" height="28" viewBox="0 0 28 28" fill="none" xmlns="http://www.w3.org/2000/svg">
<rect x="3" y="15" width="4" height="9" rx="2" ry="2" fill="url(#paint0_linear)"/>
<rect x="3" y="15" width="4" height="9" rx="2" ry="2" fill="url(#paint1_radial)"/>
<path d="M8 22V17.2808C8 16.6302 8.61182 16.1516 9.2382 16.3274C10.631 16.7183 11.7183 17.1091 12.5 17.5C13.5 18 15.5 18 17 18.5C18.2 18.9 18.8333 19.3333 19 19.5L18 20.5H12.5C11.8333 21.1667 11.5 21.5 15.5 21.5C22 21.5 20.5 17.5 23.5 18.5C23.9743 18.6581 25 18.5 25 19.5C25 20.5 17 25 15 25C13.23 25 11.46 23.4336 8.99691 23.0733C8.45045 22.9933 8 22.5523 8 22Z" fill="url(#paint2_linear)"/>
<path d="M8 22V17.2808C8 16.6302 8.61182 16.1516 9.2382 16.3274C10.631 16.7183 11.7183 17.1091 12.5 17.5C13.5 18 15.5 18 17 18.5C18.2 18.9 18.8333 19.3333 19 19.5L18 20.5H12.5C11.8333 21.1667 11.5 21.5 15.5 21.5C22 21.5 20.5 17.5 23.5 18.5C23.9743 18.6581 25 18.5 25 19.5C25 20.5 17 25 15 25C13.23 25 11.46 23.4336 8.99691 23.0733C8.45045 22.9933 8 22.5523 8 22Z" fill="url(#paint3_radial)"/>
<path d="M11.5 9.5C11.5 8.3 12.8333 6.66667 13.5 6L14.5 7C14.8333 6.83333 15.5 6.2 15.5 5C15.5 3.8 14.5 2.5 14 2C14.8333 2.16667 16.9 3 18.5 5C20.1 7 20.5 8.5 20.5 9L22 8C22 10.3333 21 15 17 15C12 15 11.5 11 11.5 9.5Z" fill="#C4C4C4"/>
<path d="M11.5 9.5C11.5 8.3 12.8333 6.66667 13.5 6L14.5 7C14.8333 6.83333 15.5 6.2 15.5 5C15.5 3.8 14.5 2.5 14 2C14.8333 2.16667 16.9 3 18.5 5C20.1 7 20.5 8.5 20.5 9L22 8C22 10.3333 21 15 17 15C12 15 11.5 11 11.5 9.5Z" fill="url(#paint4_linear)"/>
<path d="M14.5 10.5C14.5 9.3 15.8333 8.33333 16.5 8C17 10 19 10.5 19 11.5C19 12.5 17.5 13.5 16.5 13.5C15.5 13.5 14.5 12 14.5 10.5Z" fill="url(#paint5_linear)"/>
<defs>
<linearGradient id="paint0_linear" x1="5" y1="15" x2="5" y2="24" gradientUnits="userSpaceOnUse">
<stop stop-color="#F8A6C3"/>
<stop offset="0.1875" stop-color="#DDD3E7"/>
<stop offset="1" stop-color="#9580AA"/>
</linearGradient>
<radialGradient id="paint1_radial" cx="0" cy="0" r="1" gradientUnits="userSpaceOnUse" gradientTransform="translate(6 15) rotate(93.0941) scale(18.527 13.4656)">
<stop stop-color="#FD76B7"/>
<stop offset="0.1875" stop-color="#C997BE"/>
<stop offset="0.400457" stop-color="#9B6789"/>
</radialGradient>
<linearGradient id="paint2_linear" x1="16.5" y1="16" x2="16.5" y2="25" gradientUnits="userSpaceOnUse">
<stop stop-color="#FDDE40"/>
<stop offset="1" stop-color="#FDA24F"/>
</linearGradient>
<radialGradient id="paint3_radial" cx="0" cy="0" r="1" gradientUnits="userSpaceOnUse" gradientTransform="translate(16.5 17.5) rotate(90) scale(17 52.5121)">
<stop stop-color="#F8A6C3"/>
<stop offset="0.1875" stop-color="#DDD3E7"/>
<stop offset="0.465247" stop-color="#9580AA"/>
</radialGradient>
<linearGradient id="paint4_linear" x1="16.75" y1="2" x2="16.75" y2="15" gradientUnits="userSpaceOnUse">
<stop stop-color="#F8A6C3"/>
<stop offset="1" stop-color="#FF699E"/>
</linearGradient>
<linearGradient id="paint5_linear" x1="16.75" y1="8" x2="16.75" y2="13.5" gradientUnits="userSpaceOnUse">
<stop stop-color="#FBE6ED"/>
<stop offset="1" stop-color="#FBB3CC"/>
</linearGradient>
</defs>
</svg>
